<svg width="143" height="131" viewBox="0 0 143 131" fill="none" xmlns="http://www.w3.org/2000/svg">
<path fill-rule="evenodd" clip-rule="evenodd" d="M45.4339 0.845921C40.9279 2.38092 29.8769 11.1529 20.3179 20.7819C12.9169 28.2359 8.60492 33.9579 2.56092 44.3449C1.52492 46.1259 1.3929 47.2689 2.1649 47.7749C2.9779 48.3079 3.53891 48.0029 6.91191 45.1999C11.8379 41.1059 15.1949 39.0479 19.2129 37.6579C29.1009 34.2379 38.6969 34.1749 44.7429 37.4899C47.0079 38.7329 46.8929 38.5289 46.2679 40.1939C45.9739 40.9799 45.4399 42.5569 45.0829 43.6979C44.7259 44.8389 44.0269 46.7469 43.5289 47.9379C43.0319 49.1289 42.0729 51.6449 41.3979 53.5309C36.4969 67.2299 32.5059 76.4229 31.2539 76.8929C30.9329 77.0139 30.5069 77.1809 30.3089 77.2649C30.1109 77.3489 28.8679 77.7059 27.5469 78.0589C26.2269 78.4119 24.9109 78.8229 24.6239 78.9709C24.3369 79.1199 23.9949 79.2409 23.8639 79.2409C23.5659 79.2409 18.2699 81.9039 17.3839 82.4989C15.1789 83.9809 14.5559 84.4869 12.7799 86.2349C9.87091 89.0999 7.45791 92.4099 4.82491 97.1499C2.64791 101.067 0.395917 108.964 0.155917 113.522C-0.623083 128.297 14.3889 134.203 35.8639 127.568C40.7159 126.069 49.3019 122.226 52.7719 120C53.4169 119.586 54.9999 118.678 56.2899 117.982C67.2489 112.071 73.7659 107.756 79.7269 102.464C83.2219 99.3619 85.6029 97.6289 86.2279 97.7309C90.6579 98.4569 103.472 98.7109 106.538 98.1339C116.426 96.2729 126.09 91.1399 134.103 83.4929C137.288 80.4529 139.654 76.5819 141.388 71.5739C142.651 67.9259 142.605 67.5029 140.853 66.6669C133.692 63.2479 123.145 61.3299 108.252 60.7399L105.185 60.6189L102.257 58.9239C100.646 57.9919 99.2449 57.2299 99.1439 57.2299C99.0429 57.2299 98.9599 57.1679 98.9599 57.0919C98.9599 57.0159 98.8019 56.8739 98.6079 56.7759C97.7119 56.3229 93.4459 53.0829 90.7499 50.8069L89.8819 50.0739L90.4459 47.2919C91.4119 42.5239 92.2889 36.7819 92.9629 30.8139L93.1229 29.3869L92.2109 28.2879C85.6569 20.3959 70.8099 9.34192 60.3499 4.56892C52.9089 1.17292 48.0409 -0.0420789 45.4339 0.845921ZM50.0649 2.73792C57.8879 4.71392 64.9409 8.34492 75.4149 15.7879C83.2999 21.3919 91.3599 28.9979 91.1249 30.6149C91.0669 31.0129 90.9359 32.1909 90.8339 33.2329C90.5179 36.4519 89.7749 41.2589 88.9369 45.5109C87.7799 51.3829 87.5259 50.5399 91.3819 53.6419C98.2039 59.1269 110.414 66.1049 111.708 65.2569C112.56 64.6979 112.24 64.0929 110.688 63.3299L109.335 62.6649L110.147 62.6609C118.341 62.6189 132.573 65.0369 138.022 67.3969L138.563 67.6309L137.21 68.0259C126.031 71.2899 117.931 74.7209 106.177 81.1709C99.3439 84.9199 91.4329 90.7159 79.7449 100.538C76.6729 103.119 71.6829 106.808 67.3139 109.726C65.6769 110.82 62.5269 112.658 58.8159 114.685C56.8759 115.745 52.9629 117.96 52.3339 118.354C51.3069 118.998 44.9119 122.161 42.4879 123.223C24.4219 131.14 7.47591 129.954 3.05191 120.465C-1.13309 111.49 6.90791 91.5239 17.5779 84.3989C19.8639 82.8719 25.3519 80.1479 26.6689 79.8869C26.8849 79.8449 27.3049 79.7249 27.6029 79.6209C28.2589 79.3919 30.4379 79.0399 30.5439 79.1459C30.5859 79.1879 30.2559 79.7739 29.8099 80.4489C28.4859 82.4549 27.8559 83.6779 27.9809 84.0029C28.1389 84.4159 28.7179 84.6969 29.1369 84.5639C29.4659 84.4589 31.3009 81.6579 31.3009 81.2609C31.3009 81.1589 31.3709 81.0489 31.4549 81.0149C31.8919 80.8449 35.0349 74.6079 36.9859 70.0399C39.0189 65.2829 45.5379 47.7589 46.0199 45.7589C46.0899 45.4689 46.3059 44.9139 46.5009 44.5259C46.9339 43.6629 48.8019 38.5129 48.8019 38.1839C48.8019 38.0539 48.1309 37.4999 47.3089 36.9539C37.0199 30.1069 19.1269 32.7679 6.79791 42.9789C5.57591 43.9909 4.54491 44.7869 4.50591 44.7479C4.30691 44.5489 9.95992 35.7739 12.5049 32.3309C18.4609 24.2759 28.6759 14.5799 40.6909 5.57592C45.7919 1.75292 45.9629 1.70092 50.0649 2.73792ZM140.997 68.7319C140.952 71.3179 136.663 78.9279 133.44 82.1389C125.448 90.1009 114.587 95.6789 104.644 96.9269C101.409 97.3329 87.7919 97.0009 87.2949 96.5039C87.2569 96.4659 88.0189 95.8389 88.9879 95.1109C89.9579 94.3829 91.1979 93.4499 91.7429 93.0369C96.0399 89.7879 98.2669 88.1339 99.1269 87.5529C99.6809 87.1799 100.62 86.5459 101.216 86.1449C105.307 83.3909 118.59 76.5299 123.769 74.4949C126.763 73.3179 135.153 70.4399 136.523 70.1189C136.791 70.0569 137.765 69.6909 138.689 69.3069C140.325 68.6249 141.002 68.4569 140.997 68.7319Z" fill="black"/>
</svg>
