<?xml version="1.0" encoding="UTF-8"?>
<svg version="1.1" xmlns="http://www.w3.org/2000/svg" width="793" height="357">
<path d="M0 0 C1.06565186 0.59433838 1.06565186 0.59433838 2.15283203 1.20068359 C13.85248757 7.83377837 24.51365344 15.60540362 35 24 C35.54269531 24.43086914 36.08539063 24.86173828 36.64453125 25.30566406 C51.15664142 36.84597906 63.35862608 49.47149468 74.59716797 64.16894531 C75.5154915 65.36759245 76.43881832 66.56242691 77.36767578 67.75292969 C97.53151258 93.63530327 120.80399735 133.13161155 120 167 C120.58523438 166.56171875 121.17046875 166.1234375 121.7734375 165.671875 C171.04630941 129.27209575 227.53713535 111.99081397 288.9453125 120.9609375 C332.91416182 128.1392339 371.15168376 145.92554158 404 176 C404.98355469 176.87914062 405.96710937 177.75828125 406.98046875 178.6640625 C417.92023873 188.47177235 427.09508034 199.36195499 436 211 C436.70125 211.90492188 437.4025 212.80984375 438.125 213.7421875 C457.10415878 238.92018443 486 285.08593107 486 317 C486.66 317 487.32 317 488 317 C488.125 323.75 488.125 323.75 487 326 C436.31650296 326.69583903 385.6436523 327.15223554 334.95536171 327.09049445 C328.89400433 327.08323734 322.83264869 327.07857716 316.77128792 327.0752964 C315.86723809 327.07480633 314.96318827 327.07431626 314.03174299 327.07381134 C312.17619604 327.0728154 310.32064908 327.07182417 308.46510211 327.07083751 C290.2581201 327.0608665 272.05114888 327.04386892 253.84417484 327.02441294 C237.16908872 327.00663938 220.49400225 326.99177105 203.81891157 326.97898979 C141.60089154 326.93126723 79.38293217 326.86414301 17.16496773 326.76762693 C10.63821755 326.75751422 4.1114672 326.7475149 -2.4152832 326.73754883 C-3.13489466 326.7364466 -3.85450612 326.73534438 -4.59592399 326.73420876 C-28.35508071 326.69787386 -52.11423541 326.67219062 -75.87341057 326.65161031 C-100.69177251 326.63006249 -125.51010309 326.59884375 -150.32843619 326.55500887 C-153.81603817 326.54885158 -157.30364032 326.54280112 -160.7912426 326.53681374 C-161.47678161 326.53563285 -162.16232063 326.53445197 -162.86863355 326.53323531 C-173.83805808 326.51461613 -184.80746745 326.50612295 -195.77690583 326.50153876 C-206.6869781 326.49675805 -217.59699655 326.48094764 -228.50703848 326.45433434 C-234.40013268 326.44027836 -240.29312912 326.43116528 -246.18624115 326.43499184 C-251.56620051 326.43838054 -256.94594993 326.42816464 -262.32586621 326.40676448 C-264.27634383 326.40146376 -266.22684307 326.40129571 -268.17732067 326.40660437 C-270.81312866 326.41305363 -273.44822907 326.40131929 -276.0839777 326.38476086 C-276.85156445 326.39103755 -277.6191512 326.39731425 -278.40999815 326.40378115 C-283.5023004 326.3442612 -283.5023004 326.3442612 -285.93225139 324.66345245 C-288.33830411 320.91504739 -288.11579494 317.47645368 -288.09793091 313.15068054 C-288.09654263 312.4538504 -288.09515436 311.75702027 -288.09372401 311.03907406 C-288.08807342 308.7078957 -288.07543353 306.37680551 -288.06298828 304.0456543 C-288.05783151 302.38080086 -288.0532206 300.71594566 -288.04911995 299.05108929 C-288.04004435 295.51154711 -288.0286727 291.97202222 -288.01596832 288.4324913 C-287.99858201 283.15221128 -287.99596516 277.87200956 -287.99847412 272.59170532 C-287.99887235 271.72655243 -287.99927058 270.86139954 -287.99968088 269.97002989 C-288.00054659 268.20222178 -288.00143954 266.43441368 -288.00235915 264.66660559 C-288.00977668 245.81641577 -287.97287528 226.96635292 -287.9197216 208.11624622 C-287.89005037 197.33159517 -287.87199312 186.54714559 -287.87988281 175.76245117 C-287.88681606 166.24390214 -287.87278684 156.72565413 -287.83356392 147.20717925 C-287.81364147 142.20051409 -287.80389863 137.19432242 -287.81957626 132.18763161 C-287.83392808 127.50424019 -287.82013894 122.82176268 -287.78504753 118.13848877 C-287.77711506 116.42852594 -287.77927915 114.71847993 -287.79260826 113.00855064 C-287.86269885 103.18516531 -287.21123482 96.04878257 -281 88 C-280.06602507 86.4981175 -279.14586572 84.9874634 -278.24609375 83.46484375 C-268.55926296 67.75911119 -257.81096026 53.29402815 -245 40 C-244.23816406 39.175 -243.47632813 38.35 -242.69140625 37.5 C-235.83744073 30.28773274 -228.06230459 24.42291525 -220.078125 18.53564453 C-218.21819656 17.16123782 -216.37329178 15.76930245 -214.53125 14.37109375 C-186.9237858 -6.28944771 -156.95004974 -16.62287836 -123 -21 C-122.08138184 -21.11859375 -121.16276367 -21.2371875 -120.21630859 -21.359375 C-78.63238636 -26.46337422 -36.92598028 -20.67139166 0 0 Z " fill="#FEFEFF" transform="translate(294,26)"/>
<path d="M0 0 C2.9375 0.375 2.9375 0.375 6 1 C7.36623674 3.73247348 7.128426 5.98198902 7 9 C6.67 9.33 6.34 9.66 6 10 C5.88969614 12.78127747 5.84503079 15.53825519 5.84178162 18.32044983 C5.83684364 19.20335156 5.83190566 20.0862533 5.82681805 20.99590963 C5.81136307 23.97782121 5.8030609 26.95971114 5.79467773 29.94165039 C5.78510549 32.06985162 5.7750958 34.19805091 5.76467896 36.32624817 C5.737553 42.12351245 5.71658522 47.92078494 5.69667697 53.7180779 C5.67486468 59.7692969 5.6474528 65.82049039 5.62062073 71.87168884 C5.5706293 83.33933182 5.52571449 94.80698891 5.48259836 106.27465957 C5.43328098 119.32644645 5.37834253 132.37820775 5.32291877 145.42996991 C5.20899975 172.28662275 5.10218243 199.14330012 5 226 C5.66001895 225.99984402 6.32003789 225.99968804 7.00005741 225.99952733 C78.82830513 225.98258776 150.65655308 225.96688141 222.48480225 225.95765686 C223.55706029 225.9575188 224.62931833 225.95738075 225.73406904 225.95723851 C249.03486146 225.95424588 272.3356539 225.95147566 295.63644637 225.94893467 C307.06248118 225.94768729 318.48851598 225.94639074 329.91455078 225.94506836 C331.62012916 225.94487222 331.62012916 225.94487222 333.36016367 225.94467212 C370.24208235 225.9404077 407.1239995 225.93289411 444.00591725 225.92370278 C481.89411555 225.91427778 519.78231299 225.90811632 557.67051244 225.90608501 C563.0170029 225.90579684 568.36349336 225.9054712 573.70998383 225.90512276 C575.28844556 225.90502162 575.28844556 225.90502162 576.89879541 225.90491844 C593.86560164 225.90373487 610.83240526 225.89909182 627.79921042 225.89316797 C644.83987602 225.88729169 661.88053903 225.88502926 678.92120561 225.88649862 C689.05615128 225.88726153 699.19108748 225.88521075 709.32603144 225.87920246 C716.08680644 225.87546685 722.84757519 225.87532623 729.60835061 225.87816819 C733.4665222 225.87968533 737.3246758 225.87958315 741.1828455 225.87511682 C745.32957376 225.87035267 749.47626035 225.87324159 753.62298965 225.87695217 C754.83338848 225.87432516 756.04378731 225.87169814 757.29086488 225.86899152 C758.94059438 225.87236246 758.94059438 225.87236246 760.62365174 225.8758015 C761.57263786 225.87564552 762.52162398 225.87548954 763.49936725 225.87532884 C765.81319791 225.99068682 767.78519582 226.34481722 770 227 C770.125 233.75 770.125 233.75 769 236 C718.31650296 236.69583903 667.6436523 237.15223554 616.95536171 237.09049445 C610.89400433 237.08323734 604.83264869 237.07857716 598.77128792 237.0752964 C597.86723809 237.07480633 596.96318827 237.07431626 596.03174299 237.07381134 C594.17619604 237.0728154 592.32064908 237.07182417 590.46510211 237.07083751 C572.2581201 237.0608665 554.05114888 237.04386892 535.84417484 237.02441294 C519.16908872 237.00663938 502.49400225 236.99177105 485.81891157 236.97898979 C423.60089154 236.93126723 361.38293217 236.86414301 299.16496773 236.76762693 C292.63821755 236.75751422 286.1114672 236.7475149 279.5847168 236.73754883 C278.50529961 236.73589549 278.50529961 236.73589549 277.40407601 236.73420876 C253.64491929 236.69787386 229.88576459 236.67219062 206.12658943 236.65161031 C181.30822749 236.63006249 156.48989691 236.59884375 131.67156381 236.55500887 C128.18396183 236.54885158 124.69635968 236.54280112 121.2087574 236.53681374 C120.52321839 236.53563285 119.83767937 236.53445197 119.13136645 236.53323531 C108.16194192 236.51461613 97.19253255 236.50612295 86.22309417 236.50153876 C75.3130219 236.49675805 64.40300345 236.48094764 53.49296152 236.45433434 C47.59986732 236.44027836 41.70687088 236.43116528 35.81375885 236.43499184 C30.43379949 236.43838054 25.05405007 236.42816464 19.67413379 236.40676448 C17.72365617 236.40146376 15.77315693 236.40129571 13.82267933 236.40660437 C11.18687134 236.41305363 8.55177093 236.40131929 5.9160223 236.38476086 C5.14843555 236.39103755 4.3808488 236.39731425 3.59000185 236.40378115 C-1.5023004 236.3442612 -1.5023004 236.3442612 -3.93225139 234.66345245 C-6.33767289 230.91603078 -6.11626213 227.47785115 -6.09916687 223.15315247 C-6.09787596 222.45651706 -6.09658505 221.75988165 -6.09525502 221.04213607 C-6.08987684 218.71140161 -6.07745577 216.3807564 -6.06518555 214.05004883 C-6.06012579 212.38533834 -6.05558587 210.72062621 -6.05153179 209.05591297 C-6.04240564 205.51579126 -6.03077115 201.97568977 -6.01751328 198.43558121 C-5.99890214 193.14970476 -5.99318363 187.86387842 -5.99160767 182.57797241 C-5.99100455 180.82055505 -5.99039831 179.06313769 -5.98978901 177.30572033 C-5.98948425 176.42590665 -5.98917949 175.54609298 -5.98886549 174.63961828 C-5.97964538 155.7638819 -5.92990235 136.88825009 -5.86790943 118.01262188 C-5.83303413 107.21224777 -5.80786176 96.41200599 -5.80444336 85.61157227 C-5.80140395 76.08061173 -5.78096383 66.54987588 -5.73947543 57.01900226 C-5.71823464 52.00463406 -5.70550274 46.99058503 -5.71384621 41.97617149 C-5.72138122 37.28794685 -5.70558664 32.60037785 -5.67193985 27.91227341 C-5.66371664 26.19824849 -5.66394479 24.48415824 -5.67340279 22.77013969 C-5.75266934 6.82831166 -5.75266934 6.82831166 0 0 Z " fill="#D1E4FF" transform="translate(12,116)"/>
</svg>
