<svg width="40" height="50" viewBox="0 0 40 50" fill="none" xmlns="http://www.w3.org/2000/svg">
<path d="M19.9904 50C19.9904 50 25.4902 43.5 25.9902 43C26.4902 42.5 30.4902 38 30.4902 38L34.9902 33L7 35L19.9904 50Z" fill="#28A5FF"/>
<path d="M19.9999 50C19.9999 50 14.5 43.5 14 43C13.5 42.5 9.5 38 9.5 38L5 33L32.9902 35L19.9999 50Z" fill="#28A5FF"/>
<path d="M40 20C40 31.0457 31 39.5 20 40C9 39.5 0 31.0457 0 20C0 8.9543 8.9543 0 20 0C31.0457 0 40 8.9543 40 20Z" fill="#28A5FF"/>
<circle cx="20" cy="20" r="10" fill="#1565C0"/>
</svg>
