<?xml version="1.0" encoding="UTF-8"?>
<svg version="1.1" xmlns="http://www.w3.org/2000/svg" width="999" height="385">
<path d="M0 0 C0.63244629 0.22413574 1.26489258 0.44827148 1.91650391 0.67919922 C15.67660051 5.6493896 27.9192139 12.34724343 39 22 C39.92425781 22.79148438 40.84851563 23.58296875 41.80078125 24.3984375 C48.854832 30.56449601 48.854832 30.56449601 50 34 C50.66 34 51.32 34 52 34 C53.94448978 36.33581456 55.76560901 38.67884503 57.5625 41.125 C58.09536621 41.84187988 58.62823242 42.55875977 59.17724609 43.29736328 C63.08623894 48.61270435 66.74955451 54.05397262 70.23266602 59.65673828 C71.69434606 62.00642638 73.03443413 64.03443413 75 66 C76.31099729 69.59344698 76.1389406 73.23542166 76.15821838 77.02365112 C76.16315636 77.73253703 76.16809434 78.44142294 76.17318195 79.17179024 C76.18855437 81.55186174 76.1969205 83.93190616 76.20532227 86.31201172 C76.21490899 88.02213269 76.22491953 89.73225134 76.23532104 91.44236755 C76.26248732 96.11976535 76.28348365 100.79717311 76.30332303 105.47460699 C76.32542251 110.46617132 76.35276065 115.45770737 76.37937927 120.44924927 C76.42382027 128.92871735 76.46446128 137.40819705 76.50268555 145.88769531 C76.54101017 154.38478508 76.58240563 162.88185065 76.62768555 171.37890625 C76.74905575 194.20880054 76.85281028 217.03862546 76.92713356 239.86872482 C76.96737835 251.88595564 77.02672658 263.90288875 77.10485345 275.91993368 C77.16166414 284.77843907 77.20427717 293.63694261 77.23661155 302.49557078 C77.25637325 307.7490882 77.28308751 313.00235714 77.3269062 318.25573349 C77.3673784 323.12526023 77.38935096 327.99451043 77.39680028 332.8641963 C77.40287587 334.64795151 77.41587264 336.43169829 77.43622279 338.21534777 C77.46296818 340.64588543 77.46512939 343.07523733 77.46104431 345.50588989 C77.47473936 346.21342781 77.48843441 346.92096573 77.50254446 347.64994419 C77.47194795 350.9005073 77.17884585 352.74305424 75.30417919 355.43636608 C72.51991327 357.32579059 71.02013804 357.50375216 67.67208862 357.51225281 C66.57728935 357.52471826 65.48249008 357.5371837 64.35451508 357.55002689 C63.14423897 357.54342769 61.93396286 357.53682848 60.68701172 357.5300293 C58.7418504 357.54315611 58.7418504 357.54315611 56.75739288 357.55654812 C53.10017613 357.58060898 49.44331411 357.57942039 45.78603697 357.57466173 C41.7357688 357.5739003 37.68561806 357.59659185 33.63540649 357.61618042 C26.35141502 357.64810111 19.06750302 357.66472977 11.78344727 357.67214966 C0.53338979 357.68372159 -10.71652568 357.71795688 -21.96651983 357.7563051 C-41.0173333 357.82071635 -60.06815593 357.86928981 -79.11903238 357.91041243 C-103.36297131 357.9630671 -127.60676338 358.03617199 -151.85058594 358.12792969 C-152.61828755 358.13082951 -153.38598916 358.13372934 -154.17695446 358.13671704 C-161.298248 358.16362183 -168.41954097 358.19067475 -175.54083353 358.21783549 C-264.36201443 358.55633099 -353.18332322 358.78244538 -442.00496227 358.95960075 C-455.76985114 358.98711021 -469.53473684 359.01589614 -483.29962146 359.04545587 C-541.20249296 359.16976506 -599.10532721 359.27219077 -657.00831032 359.32663059 C-662.00423818 359.33138268 -667.00016598 359.3361896 -671.99609375 359.34103394 C-673.22879204 359.34221797 -674.46149033 359.343402 -675.73154311 359.34462192 C-694.35930794 359.36288602 -712.98701527 359.39503763 -731.61474609 359.43460083 C-752.83879618 359.4796751 -774.06278571 359.50745618 -795.28688496 359.51201564 C-807.27947669 359.51511775 -819.27186307 359.53227165 -831.26440059 359.56877499 C-839.31778498 359.59189156 -847.37104743 359.59687571 -855.42445857 359.58696366 C-860.03317641 359.58180963 -864.64151382 359.58475954 -869.25017643 359.60949528 C-873.4446328 359.63184093 -877.63842848 359.63136492 -881.8328953 359.61228397 C-883.34727743 359.60946919 -884.86170358 359.61515373 -886.37601463 359.63009409 C-888.4260775 359.64910551 -890.47637071 359.63446546 -892.52645588 359.61803246 C-894.23352568 359.62006725 -894.23352568 359.62006725 -895.97508174 359.62214315 C-899.96027208 358.80249824 -901.45650698 357.10180754 -904 354 C-912.58563006 329.38234806 -904.97304454 298.5706788 -894.20214844 276.01074219 C-888.4802059 264.31903477 -881.29211418 254.0188885 -873 244 C-872.56042969 243.43667969 -872.12085938 242.87335938 -871.66796875 242.29296875 C-862.46870493 230.63236344 -848.57806098 221.63332251 -836 214 C-835.16855469 213.47664062 -834.33710937 212.95328125 -833.48046875 212.4140625 C-827.52446092 208.71852378 -821.43584977 205.76150884 -815 203 C-813.60543971 202.38548257 -812.21091081 201.77089389 -810.81640625 201.15625 C-788.92701 191.61251047 -766.62639983 185.11833822 -743.0625 181.25 C-742.36688965 181.13430664 -741.6712793 181.01861328 -740.95458984 180.89941406 C-727.90289901 178.90914464 -714.67325637 178.79361035 -701.5 178.8125 C-700.71386322 178.81310425 -699.92772644 178.8137085 -699.11776733 178.81433105 C-657.43989039 178.9008139 -617.33801558 186.01554047 -580 205 C-579.74476563 204.09447388 -579.74476563 204.09447388 -579.484375 203.1706543 C-577.66449308 196.89121464 -575.47342667 190.86123703 -573 184.8125 C-572.65710938 183.96236328 -572.31421875 183.11222656 -571.9609375 182.23632812 C-569.18369208 175.37271586 -566.31270427 168.62540854 -563 162 C-562.67 161.01 -562.34 160.02 -562 159 C-561.34 159 -560.68 159 -560 159 C-559.67 157.35 -559.34 155.7 -559 154 C-558.34 154 -557.68 154 -557 154 C-556.87625 153.21625 -556.7525 152.4325 -556.625 151.625 C-556 149 -556 149 -554 147 C-553.34 146.67 -552.68 146.34 -552 146 C-551.28272222 144.35448038 -550.61674772 142.68577711 -550 141 C-549.67 140.34 -549.34 139.68 -549 139 C-548.34 139 -547.68 139 -547 139 C-546.67 137.68 -546.34 136.36 -546 135 C-545.34 135 -544.68 135 -544 135 C-543.9071875 134.1646875 -543.9071875 134.1646875 -543.8125 133.3125 C-542.64533489 129.99056852 -540.56764415 128.40018909 -538 126 C-534.68764479 122.77839424 -531.47913722 119.58970735 -528.5625 116 C-525.34060615 112.22802671 -521.81574556 109.15927321 -518 106 C-517.47615723 105.56381348 -516.95231445 105.12762695 -516.41259766 104.67822266 C-501.92439891 92.66649983 -486.6721428 82.72550444 -470 74 C-469.32807617 73.64695801 -468.65615234 73.29391602 -467.96386719 72.93017578 C-397.71062629 36.58569331 -304.90549193 32.05357608 -230.00976562 55.02490234 C-218.65126721 58.70480522 -207.65414548 63.35699901 -197.1171875 68.96875 C-195.09282323 70.14596689 -195.09282323 70.14596689 -193 70 C-192.57589844 69.16597656 -192.15179687 68.33195312 -191.71484375 67.47265625 C-184.4848755 53.60065124 -184.4848755 53.60065124 -179 48 C-178.34 48 -177.68 48 -177 48 C-176.65775391 47.18208984 -176.65775391 47.18208984 -176.30859375 46.34765625 C-174.62434392 43.32606178 -172.41376149 40.94344974 -170.0625 38.4375 C-169.57523438 37.91446289 -169.08796875 37.39142578 -168.5859375 36.85253906 C-167.06431471 35.22823607 -165.5333924 33.61318988 -164 32 C-163.29979736 31.2567749 -163.29979736 31.2567749 -162.58544922 30.49853516 C-156.24305774 23.79914408 -149.68598199 18.09935344 -142 13 C-141.0615625 12.36707031 -140.123125 11.73414062 -139.15625 11.08203125 C-96.79909903 -16.26453142 -46.74367818 -16.64002752 0 0 Z " fill="#FEFEFF" transform="translate(916,18)"/>
<path d="M0 0 C3.71520692 3.71520692 3.13247642 7.96516146 3.15821838 13.02365112 C3.16315636 13.73253703 3.16809434 14.44142294 3.17318195 15.17179024 C3.18855437 17.55186174 3.1969205 19.93190616 3.20532227 22.31201172 C3.21490899 24.02213269 3.22491953 25.73225134 3.23532104 27.44236755 C3.26248732 32.11976535 3.28348365 36.79717311 3.30332303 41.47460699 C3.32542251 46.46617132 3.35276065 51.45770737 3.37937927 56.44924927 C3.42382027 64.92871735 3.46446128 73.40819705 3.50268555 81.88769531 C3.54101017 90.38478508 3.58240563 98.88185065 3.62768555 107.37890625 C3.74905575 130.20880054 3.85281028 153.03862546 3.92713356 175.86872482 C3.96737835 187.88595564 4.02672658 199.90288875 4.10485345 211.91993368 C4.16166414 220.77843907 4.20427717 229.63694261 4.23661155 238.49557078 C4.25637325 243.7490882 4.28308751 249.00235714 4.3269062 254.25573349 C4.3673784 259.12526023 4.38935096 263.99451043 4.39680028 268.8641963 C4.40287587 270.64795151 4.41587264 272.43169829 4.43622279 274.21534777 C4.46296818 276.64588543 4.46512939 279.07523733 4.46104431 281.50588989 C4.47473936 282.21342781 4.48843441 282.92096573 4.50254446 283.64994419 C4.47194795 286.9005073 4.17884585 288.74305424 2.30417919 291.43636608 C-0.48008673 293.32579059 -1.97986196 293.50375216 -5.32791138 293.51225281 C-6.42271065 293.52471826 -7.51750992 293.5371837 -8.64548492 293.55002689 C-9.85576103 293.54342769 -11.06603714 293.53682848 -12.31298828 293.5300293 C-14.2581496 293.54315611 -14.2581496 293.54315611 -16.24260712 293.55654812 C-19.89982387 293.58060898 -23.55668589 293.57942039 -27.21396303 293.57466173 C-31.2642312 293.5739003 -35.31438194 293.59659185 -39.36459351 293.61618042 C-46.64858498 293.64810111 -53.93249698 293.66472977 -61.21655273 293.67214966 C-72.46661021 293.68372159 -83.71652568 293.71795688 -94.96651983 293.7563051 C-114.0173333 293.82071635 -133.06815593 293.86928981 -152.11903238 293.91041243 C-176.36297122 293.9630671 -200.60676359 294.03613052 -224.85058594 294.12792969 C-226.00213404 294.13228374 -226.00213404 294.13228374 -227.17694575 294.13672575 C-234.29821266 294.16366397 -241.41947901 294.19074846 -248.54074502 294.217924 C-340.64717124 294.56897151 -432.75396647 294.85945566 -972 295 C-976.87831858 286.83075221 -976.87831858 286.83075221 -976 282 C-974.22394284 279.93239072 -972.72770618 279.09868106 -970.02120638 278.73166442 C-967.40069119 278.622081 -964.79663099 278.61996292 -962.17388916 278.64596558 C-961.15593449 278.64410928 -960.13797981 278.64225299 -959.08917803 278.64034045 C-955.63513323 278.63772508 -952.18153033 278.65670038 -948.72753906 278.67529297 C-946.22161865 278.67776198 -943.7156966 278.67887891 -941.20977497 278.67876434 C-935.69667761 278.68146023 -930.18371671 278.69349581 -924.6706562 278.71323776 C-916.30412423 278.74298402 -907.93763483 278.75407138 -899.57105664 278.76123782 C-885.10889902 278.7739331 -870.64678949 278.79930021 -856.18466187 278.83081055 C-820.88948368 278.90703991 -785.59423356 278.92924244 -750.29898831 278.95405753 C-743.94991104 278.9585655 -737.60083435 278.9635537 -731.25175775 278.96892227 C-649.04125496 279.03841873 -566.83143107 278.9382539 -484.62109375 278.7890625 C-483.06252446 278.78623942 -481.50395517 278.78341644 -479.94538587 278.78059357 C-436.97831493 278.70269539 -394.01125657 278.61864947 -351.04420117 278.53265116 C-333.93245227 278.4984073 -316.82070222 278.46475672 -299.70895189 278.43123547 C-297.39549503 278.42670273 -295.08203817 278.4221672 -292.76858132 278.41763066 C-276.87287999 278.38646038 -260.97717851 278.35536517 -245.08147679 278.32439374 C-239.20281481 278.31293736 -233.32415286 278.30146543 -227.44549092 278.28999124 C-225.27038304 278.28574677 -223.09527516 278.28150568 -220.92016727 278.27726485 C-202.8919214 278.24210064 -184.86367792 278.20593289 -166.83543617 278.16871703 C-154.16332239 278.14257139 -141.49120761 278.116935 -128.8190918 278.09179688 C-127.62870613 278.08943479 -126.43832045 278.08707271 -125.21186249 278.08463904 C-86.4745408 278.00818258 -47.73739232 277.96775523 -9 278 C-9.0059055 277.1537808 -9.011811 276.30756161 -9.01789546 275.4356994 C-9.25288949 241.74542442 -9.25288949 241.74542442 -9.35644531 226.11352539 C-9.36220786 225.24373554 -9.3679704 224.3739457 -9.37390757 223.47779858 C-9.6049972 188.49734513 -9.80575466 153.51671132 -9.98685837 118.53596497 C-9.99968408 116.06096358 -10.01260991 113.58596274 -10.02554321 111.11096191 C-10.11962432 93.02605385 -10.19529805 74.94130157 -10.23217773 56.85617065 C-10.24250916 51.99782363 -10.2599315 47.13958128 -10.28344727 42.28128052 C-10.31033411 36.65372085 -10.32314176 31.02631918 -10.32407379 25.3986969 C-10.32674003 23.37013936 -10.33445207 21.34158114 -10.3476181 19.31306458 C-10.36444052 16.58944854 -10.36295623 13.86646726 -10.35644531 11.14282227 C-10.36566261 10.35111161 -10.37487991 9.55940096 -10.38437653 8.74369907 C-10.34402892 3.52662211 -10.34402892 3.52662211 -8.70037842 1.01060486 C-5.84263251 -0.68787112 -3.22238853 -0.29294441 0 0 Z " fill="#D0E4FF" transform="translate(989,82)"/>
</svg>
