<svg width="145" height="132" viewBox="0 0 145 132" fill="none" xmlns="http://www.w3.org/2000/svg">
<path fill-rule="evenodd" clip-rule="evenodd" d="M45.6552 0.556763C43.5582 1.33476 43.5862 1.31776 41.0022 3.24976C32.9712 9.25276 28.9272 12.7058 22.1432 19.3548C14.4302 26.9138 10.9252 31.2818 5.20615 40.4648C2.10215 45.4468 2.08315 45.4888 2.08315 47.2608C2.08315 49.2938 2.34016 49.5758 4.19416 49.5758H5.46915L8.51215 47.0238C14.2292 42.2288 18.0261 40.0798 23.6101 38.4788C31.9021 36.1008 39.6072 36.1928 44.6122 38.7308C46.9202 39.9008 46.8492 39.3638 45.2762 43.7118C44.5222 45.7958 43.5531 48.5158 43.1231 49.7558C42.6921 50.9968 42.0462 52.7828 41.6872 53.7258C41.3282 54.6678 40.8852 55.8458 40.7032 56.3418C37.3782 65.3798 32.8602 76.0428 32.1692 76.4828C32.0712 76.5458 30.8022 76.8988 29.3512 77.2688C15.9952 80.6648 6.67217 90.1898 2.10017 105.108C-0.578835 113.852 -0.0298479 121.057 3.65215 125.44C7.43615 129.945 11.9431 131.611 20.8471 131.797C31.9481 132.029 41.8101 128.899 57.2181 120.255C71.4761 112.255 71.1282 112.47 76.3962 108.414C78.0222 107.163 80.3841 105.246 81.6451 104.154C82.9071 103.063 84.7152 101.577 85.6632 100.852L87.3872 99.5338L89.7051 99.7668C91.1971 99.9168 94.7611 100.001 99.6921 100.002L107.36 100.005L109.616 99.5138C119.702 97.3208 129.186 91.9718 136.778 84.1938C141.181 79.6828 144.438 73.3108 144.438 69.2068C144.438 67.0018 144.094 66.6758 140.283 65.2708C132.831 62.5228 124.765 61.1498 112.239 60.4938L107.013 60.2207L104.761 58.9368C100.151 56.3098 98.3102 55.0638 94.3512 51.8898L92.3482 50.2838L92.9572 47.2688C93.9462 42.3658 95.0242 34.6478 95.1332 31.6858L95.2302 29.0418L91.1012 24.9078C75.6902 9.47976 53.5622 -2.37824 45.6552 0.556763ZM50.8012 4.39175C62.3992 7.25575 80.4292 18.7878 90.1272 29.5458L91.3752 30.9308L91.1092 33.3518C90.6242 37.7568 89.6502 43.8038 88.7752 47.8528C87.8622 52.0728 87.7982 51.9238 91.9432 55.1828C96.7762 58.9828 98.0221 59.8388 102.347 62.3248C111.128 67.3728 114.307 68.1648 114.307 65.3038V64.4958L116.591 64.6178C120.448 64.8238 128.15 65.9788 131.898 66.9118C134.158 67.4748 135.958 68.0208 135.958 68.1438C135.958 68.2058 134.151 68.8528 131.943 69.5818C122.359 72.7468 118.999 74.2518 106.819 80.8418C100.748 84.1258 92.2352 90.3108 82.5522 98.4698C77.7572 102.511 76.8572 103.202 72.8702 105.908C66.3632 110.325 65.5282 110.856 62.4352 112.544C60.7482 113.465 59.1492 114.371 58.8812 114.559C54.8812 117.365 42.9622 123.218 37.6272 124.998C21.8392 130.263 9.37015 128.611 5.35915 120.721C1.20615 112.554 9.21115 92.9618 19.4941 86.1258C21.7011 84.6588 28.5932 81.3307 29.4242 81.3307C29.4842 81.3307 29.2842 81.7668 28.9792 82.2998C27.3702 85.1128 29.6441 87.8008 31.7051 85.5208C33.0491 84.0328 36.7212 77.1888 38.9392 72.0388C41.0522 67.1318 46.0332 53.9028 46.3782 52.2818C46.4512 51.9348 46.7012 51.2758 46.9322 50.8168C47.1632 50.3578 47.6741 49.0587 48.0671 47.9297C48.8951 45.5537 50.0831 42.3978 50.7181 40.8908C51.3821 39.3128 51.3192 38.4378 50.4822 37.6268C43.3692 30.7348 24.1092 31.5098 12.1502 39.1688L10.0382 40.5208L10.5092 39.7708C17.8232 28.1238 29.9462 16.0568 45.2162 5.22176C46.3342 4.42876 48.0691 3.73976 48.6321 3.86676C48.8801 3.92176 49.8562 4.15875 50.8012 4.39175ZM139.867 72.5988C136.856 79.6248 133.561 83.3308 125.633 88.6048C115.935 95.0568 108.076 97.2367 96.5352 96.6787C91.1352 96.4167 91.3302 96.4728 92.5192 95.5218C98.3912 90.8238 103.567 87.3028 108.804 84.4448C121.391 77.5758 126.411 75.4328 139.205 71.4658C140.653 71.0168 140.59 70.9098 139.867 72.5988Z" fill="white"/>
</svg>
